<svg clip-rule="evenodd" fill-rule="evenodd" stroke-linejoin="round" stroke-miterlimit="1.41421" viewBox="0 0 26 14" xmlns="http://www.w3.org/2000/svg"><path d="m10.926 7.222c-.171-.399-.824-.862-1.146-.986.506-.133.973-.613 1.146-1.159zm9.38-6.955-2.025 6.942-1.812-6.942h-5.543v2.025c-.799-1.119-1.759-2.292-4.85-2.292s-5.65 1.812-5.65 4.637h3.785c.026-.959.746-1.492 1.598-1.492.853 0 1.546.213 1.546.906s-.506 1.119-.826 1.119h-1.999v2.452h1.386c.906.053 1.173.746 1.173 1.225 0 .48-.16 1.227-1.439 1.227-1.28 0-1.866-1.066-1.812-2.132h-3.838c0 2.291 1.333 5.223 5.65 5.223 4.308 0 4.808-1.978 5.286-2.091l.003 1.664h3.784v-6.715l1.746 6.715h3.411l1.865-6.715v6.715h3.838v-12.471h-5.277z" fill="#ec1b2e"/></svg>