<svg clip-rule="evenodd" fill-rule="evenodd" stroke-linejoin="round" stroke-miterlimit="1.41421" viewBox="0 0 19 15" xmlns="http://www.w3.org/2000/svg"><g fill="#fff" fill-rule="nonzero"><path d="m17.738 11.998c0 .688-.56 1.248-1.248 1.248h-14.193c-.687 0-1.247-.56-1.247-1.248v-9.697c0-.688.56-1.247 1.247-1.247h14.19c.688 0 1.247.559 1.247 1.247v9.697zm-1.248-11.998h-14.193c-1.267 0-2.297 1.031-2.297 2.297v9.701c0 1.267 1.03 2.297 2.297 2.297h14.19c1.267 0 2.296-1.03 2.296-2.297v-9.697c.004-1.267-1.025-2.301-2.293-2.301"/><path d="m11.846 7.027 4.593-4.12c.214-.194.234-.524.039-.742-.194-.214-.525-.233-.742-.039l-6.335 5.686-1.236-1.104c-.004-.004-.007-.008-.007-.012-.028-.027-.055-.05-.086-.073l-5.029-4.501c-.218-.194-.548-.175-.742.043-.195.218-.175.548.043.742l4.648 4.155-4.629 4.333c-.21.198-.222.529-.023.742.105.109.244.167.384.167.129 0 .257-.046.358-.139l4.699-4.396 1.274 1.139c.102.089.226.132.35.132s.253-.047.35-.136l1.309-1.174 4.672 4.439c.101.097.233.144.361.144.141 0 .276-.055.381-.164.199-.21.191-.544-.019-.742z"/></g></svg>