<svg clip-rule="evenodd" fill-rule="evenodd" stroke-linejoin="round" stroke-miterlimit="1.41421" viewBox="0 0 349 79" xmlns="http://www.w3.org/2000/svg"><g fill="#fff"><path d="m0 30.245 7.438-24.874 11.003 24.874zm91.597-52.26c-5.284 0-12.803 2.208-17.883 11.759-5.08 9.551-5.486 17.679-5.486 17.679v-19.61s.297-9.828-26.723-9.828c0 0 7.417 1.7 7.417 8.202v60.963s.102 4.299-1.524 4.268c-5.384-.102-23.47-50.802-30.684-73.257 0 0-12.048-1.975-14.428 7.01-5.968 22.533-14.021 53.648-27.738 67.263h11.38c1.727 0 7.721-2.235 13.513-18.898h19.508s6.604 20.523 16.765 20.523h21.134c6.909 0 11.075-3.657 11.075-8.737 0-5.081-.407-28.45 4.572-41.049s6.807-16.561 11.075-16.561c4.267 0 4.471 2.438 6.706 4.47s10.465.813 10.465-5.385-3.861-8.812-9.144-8.812" fill-rule="nonzero" transform="translate(25.452 23.5666)"/><path d="m0-51.92s-3.962 10.161-3.962 22.556c0 12.396.711 21.439 10.058 28.653 9.348 7.214 30.479 5.297 37.086-10.364 1.372-3.251 5.715-1.194.915 5.995-2.055 3.076-12.904 18.187-30.99 18.187 0 0-18.797.813-30.685-15.546-11.887-16.358-3.86-40.032 1.321-47.449 5.182-7.417 14.632-15.952 29.262-15.952 14.632 0 23.065 9.145 26.621 15.038s.145 10.155-2.651 10.96c-3.353.965-8.438-1.816-9.904-7.099-1.467-5.284-1.06-15.749-13.557-15.749-9.653 0-13.514 10.77-13.514 10.77" fill-rule="nonzero" transform="translate(143.059 65.84)"/><path d="m0-14.203h1.452l4.038 12.034 4.018-12.034h1.452l4.038 12.034 4.018-12.034h1.452l-4.754 14.203h-1.451l-4.019-12.035-4.037 12.035h-1.453z" fill-rule="nonzero" transform="translate(205.981 23.5346)"/><path d="m229.928 9.3401h1.452v14.203h-1.452z"/><g fill-rule="nonzero"><path d="m0-14.203h1.75l8.892 12.213v-12.213h1.452v14.203h-1.75l-8.892-12.214v12.214h-1.452z" transform="translate(236.551 23.5346)"/><path d="m0 11.417c4.078 0 5.709-1.631 5.709-5.709s-1.631-5.708-5.709-5.708h-2.327v11.417zm-3.779-12.81h3.779c5.152 0 7.22 2.029 7.22 7.101 0 5.073-2.068 7.102-7.22 7.102h-3.779z" transform="translate(257.595 10.7247)"/><path d="m0-.159c0-3.123-2.606-5.749-5.888-5.749s-5.888 2.626-5.888 5.749c0 3.282 2.606 5.908 5.888 5.908s5.888-2.626 5.888-5.908m1.512 0c0 4.058-3.322 7.36-7.4 7.36s-7.4-3.302-7.4-7.36c0-3.899 3.322-7.201 7.4-7.201s7.4 3.302 7.4 7.201" transform="translate(281.781 16.4926)"/><path d="m0-14.203h1.452l4.038 12.034 4.018-12.034h1.452l4.038 12.034 4.018-12.034h1.452l-4.754 14.203h-1.452l-4.018-12.035-4.038 12.035h-1.452z" transform="translate(285.479 23.5346)"/><path d="m0-11.418h-4.814v-1.392h11.06v1.392h-4.794v12.81h-1.452z" transform="translate(211.492 46.0094)"/><path d="m0 .676c1.81 0 3.023-1.213 3.023-3.023s-1.193-3.024-3.023-3.024h-3.203v6.047zm-4.655-7.439h4.655c2.705 0 4.535 1.77 4.535 4.416 0 2.207-1.253 3.798-3.262 4.276l4.336 5.51h-1.929l-4.237-5.371h-2.646v5.371h-1.452z" transform="translate(226.17 39.9628)"/><path d="m0-14.202h8.235v1.392h-6.783v3.979h6.385v1.392h-6.385v6.047h6.783v1.392h-8.235z" transform="translate(235.557 47.4013)"/><path d="m0-10.702-2.446 5.411h4.873zm-.795-1.75h1.571l6.385 14.202h-1.571l-2.547-5.649h-6.106l-2.546 5.649h-1.572z" transform="translate(254.353 45.6518)"/><path d="m0-11.418h-4.814v-1.392h11.06v1.392h-4.794v12.81h-1.452z" transform="translate(266.526 46.0094)"/><path d="m0-7.558-4.754 10.88h-1.73l-4.774-10.88v10.88h-1.453v-14.202h1.651l5.431 12.612 5.43-12.612h1.651v14.202h-1.452z" transform="translate(289.26 44.0791)"/><path d="m0-14.202h8.235v1.392h-6.783v3.979h6.385v1.392h-6.385v6.047h6.783v1.392h-8.235z" transform="translate(295.882 47.4013)"/><path d="m0-14.202h1.75l8.892 12.213v-12.213h1.452v14.202h-1.75l-8.892-12.213v12.213h-1.452z" transform="translate(309.089 47.4013)"/><path d="m0-11.418h-4.814v-1.392h11.06v1.392h-4.794v12.81h-1.452z" transform="translate(329.774 46.0094)"/><path d="m0-8.355c-.298-.935-1.253-1.67-2.328-1.67-1.551 0-2.566 1.113-2.566 2.347 0 1.233.856 1.79 2.566 2.327 2.646.835 4.616 1.87 4.616 4.356 0 2.487-2.049 4.118-4.616 4.118-2.366 0-4.296-1.592-4.574-3.8h1.511c.279 1.373 1.532 2.347 3.063 2.347 1.731 0 3.104-1.014 3.104-2.665 0-1.313-.856-2.029-3.104-2.725-2.645-.816-4.077-1.81-4.077-3.958 0-2.149 1.631-3.8 4.077-3.8 1.99 0 3.601 1.293 3.919 3.123z" transform="translate(345.746 44.4581)"/><path d="m0 3.7c-.418-.557-.796-1.074-1.134-1.571-1.273 1.074-1.611 2.506-1.213 3.54.556 1.572 2.506 2.427 4.674.975-.835-1.034-1.651-2.049-2.327-2.944m3.441 1.95c.338-.458.716-1.194.995-1.97h1.511c-.437 1.293-1.093 2.407-1.651 3.043l1.433 1.831h-1.831l-.696-.836c-3.003 2.049-5.987.796-6.842-1.551-.557-1.512-.1-3.7 1.75-5.153-.815-1.332-1.054-2.625-.935-3.62.219-1.73 1.234-2.824 2.487-3.083 1.83-.378 3.62.18 4.276 1.85.18.438.338 1.253.239 2.029h-1.511c.079-.557-.06-1.193-.14-1.432-.438-1.154-1.631-1.273-2.267-1.174-.836.139-1.472.796-1.612 1.83-.199 1.393.577 2.765 2.526 5.371.637.836 1.473 1.83 2.268 2.865" transform="translate(210.577 62.7156)"/><path d="m0-11.417h-4.813v-1.393h11.059v1.393h-4.794v12.81h-1.452z" transform="translate(232.077 69.8761)"/></g><path d="m242.101 57.0601h1.452v14.203h-1.452z"/><path d="m0-14.203h1.75l8.892 12.213v-12.213h1.452v14.203h-1.75l-8.892-12.214v12.214h-1.452z" fill-rule="nonzero" transform="translate(248.724 71.2695)"/><path d="m0-11.417h-4.814v-1.393h11.06v1.393h-4.794v12.81h-1.452z" fill-rule="nonzero" transform="translate(269.409 69.8761)"/><path d="m279.433 57.0601h1.452v14.203h-1.452z"/><path d="m0-14.203h1.75l8.892 12.213v-12.213h1.452v14.203h-1.75l-8.892-12.214v12.214h-1.452z" fill-rule="nonzero" transform="translate(286.056 71.2695)"/><path d="m0-.159c0-3.899 3.341-7.201 7.419-7.201 2.765 0 5.073 1.532 6.346 3.72h-1.631c-1.074-1.373-2.805-2.268-4.715-2.268-3.281 0-5.907 2.626-5.907 5.749 0 3.282 2.626 5.908 5.907 5.908 2.089 0 3.919-1.075 4.973-2.706v-3.202h1.453v7.181h-1.453v-1.731c-1.312 1.194-3.063 1.91-4.973 1.91-4.078 0-7.419-3.302-7.419-7.36" fill-rule="nonzero" transform="translate(302.325 64.2475)"/></g></svg>