<svg clip-rule="evenodd" fill-rule="evenodd" stroke-linejoin="round" stroke-miterlimit="1.41421" viewBox="0 0 20 20" xmlns="http://www.w3.org/2000/svg"><path d="m17.771 16.101c-.004 0-.004.004 0 0-.169.182-.343.347-.529.529-.282.269-.568.551-.837.867-.438.468-.953.689-1.63.689-.065 0-.134 0-.199-.004-1.288-.082-2.484-.585-3.382-1.014-2.453-1.188-4.608-2.875-6.399-5.012-1.478-1.782-2.466-3.429-3.121-5.198-.403-1.079-.55-1.92-.486-2.714.044-.507.239-.928.599-1.288l1.478-1.478c.213-.199.438-.308.659-.308.273 0 .494.165.633.304l.013.013c.264.247.516.503.78.776.135.139.274.277.412.421l1.184 1.183c.459.46.459.884 0 1.344-.126.126-.247.251-.373.373-.365.372-.711.72-1.088 1.058-.009.008-.018.013-.022.021-.373.373-.303.737-.226.984l.013.039c.309.746.742 1.448 1.401 2.285l.004.005c1.197 1.473 2.458 2.623 3.85 3.502.178.113.36.204.533.29.156.079.304.152.429.23.018.009.035.022.053.031.147.073.286.108.429.108.36 0 .585-.225.658-.299l1.483-1.483c.148-.147.382-.325.655-.325.269 0 .49.169.624.317l2.398 2.397c.446.442.446.898.004 1.357m-1.552-4.565c-.421-.437-.928-.672-1.466-.672-.533 0-1.044.23-1.482.668l-1.37 1.365c-.113-.06-.226-.117-.334-.173-.156-.078-.303-.152-.429-.23-1.284-.815-2.45-1.877-3.568-3.251-.542-.685-.906-1.262-1.171-1.847.356-.325.685-.664 1.006-.989.122-.121.243-.246.365-.368.91-.91.91-2.09 0-3l-1.184-1.184c-.134-.134-.273-.273-.403-.411-.261-.269-.534-.547-.815-.807-.421-.416-.924-.637-1.452-.637-.53 0-1.041.221-1.475.637l-.008.009-1.474 1.487c-.555.555-.872 1.231-.941 2.016-.104 1.265.269 2.445.555 3.217.702 1.894 1.751 3.65 3.316 5.531 1.899 2.268 4.184 4.058 6.794 5.32.997.472 2.328 1.031 3.815 1.127.091.004.186.008.273.008 1.001 0 1.842-.359 2.501-1.075.005-.009.013-.012.018-.021.225-.273.485-.521.758-.785.187-.178.377-.364.564-.559.429-.447.655-.967.655-1.5 0-.538-.23-1.054-.668-1.487z" fill="#f0f0f0" fill-rule="nonzero"/></svg>