<svg clip-rule="evenodd" fill-rule="evenodd" stroke-linejoin="round" stroke-miterlimit="1.41421" viewBox="0 0 15 21" xmlns="http://www.w3.org/2000/svg"><g fill="#fff" fill-rule="nonzero"><path d="m12.178 10.126-4.991 8.333-5.122-8.253c-.577-.932-.89-2.007-.89-3.109 0-3.261 2.661-5.922 5.922-5.922s5.918 2.661 5.918 5.922c0 1.07-.292 2.117-.837 3.029m-5.081-10.126c-3.913 0-7.097 3.184-7.097 7.097 0 1.322.366 2.612 1.06 3.732l5.633 9.079c.108.173.298.279.503.279h.004c.207-.001.397-.11.503-.288l5.49-9.166c.655-1.096 1.001-2.353 1.001-3.636 0-3.913-3.183-7.097-7.097-7.097"/><path d="m7.097 9.471c-1.311 0-2.373-1.066-2.373-2.374 0-1.304 1.069-2.373 2.373-2.373 1.305 0 2.37 1.069 2.37 2.373 0 1.289-1.037 2.374-2.37 2.374m0-5.922c-1.957 0-3.548 1.592-3.548 3.548 0 1.944 1.566 3.549 3.548 3.549 2.007 0 3.549-1.626 3.549-3.549 0-1.956-1.592-3.548-3.549-3.548"/></g></svg>